<?xml version="1.0" standalone="no"?>
<!DOCTYPE svg PUBLIC "-//W3C//DTD SVG 20010904//EN"
 "http://www.w3.org/TR/2001/REC-SVG-20010904/DTD/svg10.dtd">
<svg version="1.0" xmlns="http://www.w3.org/2000/svg"
 width="320.000000pt" height="320.000000pt" viewBox="0 0 320.000000 320.000000"
 preserveAspectRatio="xMidYMid meet">

<g transform="translate(0.000000,320.000000) scale(0.100000,-0.100000)"
fill="#000000" stroke="none">
<path d="M1015 2219 c83 -43 80 -36 288 -666 l194 -588 13 40 c7 22 25 75 40
117 l27 78 -133 402 c-74 222 -151 456 -171 520 l-38 118 -130 0 -130 0 40
-21z"/>
<path d="M1850 2226 c-97 -27 -153 -76 -198 -174 -33 -73 -41 -195 -18 -278
37 -126 94 -182 265 -258 203 -91 240 -134 241 -281 0 -63 -5 -91 -24 -130
-28 -62 -53 -86 -67 -64 -21 33 -29 92 -29 220 l0 136 -69 30 -69 31 -4 -182
c-3 -161 -6 -186 -25 -222 -20 -37 -50 -65 -93 -86 -8 -5 49 -7 126 -5 140 2
143 3 209 37 54 28 76 47 106 90 71 102 88 254 41 377 -38 101 -90 145 -264
223 -185 82 -240 146 -240 275 0 91 18 143 67 192 74 74 75 72 75 -157 l0
-200 48 -24 c97 -48 88 -62 95 148 6 211 19 259 79 296 l33 20 -120 -1 c-66 0
-140 -6 -165 -13z"/>
<path d="M1091 1168 c-3 -65 -74 -178 -126 -199 -12 -4 42 -8 130 -8 115 0
145 2 130 11 -54 29 -94 87 -121 173 -7 22 -13 32 -13 23z"/>
</g>
</svg>
